# Blender v2.92.0 OBJ File: 'CUBE_bauteile.blend'
# www.blender.org
mtllib CUBE_bauteile_hub_3.mtl
o Plane.002_Plane.003
v 12.000000 0.000000 2.000000
v 16.000000 0.000000 2.000000
v 12.000000 0.000000 -2.000000
v 16.000000 0.000000 -2.000000
v 12.000000 4.000000 -2.000000
v 16.000000 4.000000 -2.000000
v 12.000000 4.000000 2.000000
v 16.000000 4.000000 2.000000
vt 0.000393 -0.000000
vt 1.000393 -0.000000
vt 1.000393 1.000000
vt 0.000393 1.000000
vt 0.000394 -1.000000
vt 1.000393 -1.000000
vt 1.000393 2.000000
vt 0.000394 2.000000
vn 0.0000 0.0000 1.0000
vn 0.0000 1.0000 0.0000
vn 0.0000 -1.0000 0.0000
g Plane.002_Plane.003_Wand
usemtl Wand
s off
f 3/1/1 4/2/1 6/3/1 5/4/1
g Plane.002_Plane.003_Boden
usemtl Boden
f 1/5/2 2/6/2 4/2/2 3/1/2
g Plane.002_Plane.003_DEkce
usemtl DEkce
f 5/4/3 6/3/3 8/7/3 7/8/3
