# Blender v2.92.0 OBJ File: 'CUBE_bauteile.blend'
# www.blender.org
mtllib CUBE_bauteile_hub_1.mtl
o Plane.004_Plane.005
v 24.000000 0.000000 2.000000
v 28.000000 0.000000 2.000000
v 24.000000 0.000000 -2.000000
v 28.000000 0.000000 -2.000000
v 24.000000 4.000000 -2.000000
v 28.000000 4.000000 -2.000000
v 24.000000 4.000000 2.000000
v 28.000000 4.000000 2.000000
vt 0.000000 0.000000
vt 1.000000 0.000000
vt 1.000000 1.000000
vt 0.000000 1.000000
vt 0.000000 1.000000
vt 1.000000 1.000000
vt 1.000000 1.000000
vt 0.000000 1.000000
vn 0.0000 1.0000 0.0000
vn 0.0000 -1.0000 0.0000
vn 0.0000 0.0000 1.0000
vn 1.0000 0.0000 0.0000
vn 0.0000 0.0000 -1.0000
usemtl None
s off
f 1/1/1 2/2/1 4/3/1 3/4/1
f 5/5/2 6/6/2 8/7/2 7/8/2
f 3/4/3 4/3/3 6/6/3 5/5/3
f 3/4/4 5/5/4 7/8/4 1/1/4
f 1/1/5 7/8/5 8/7/5 2/2/5
