# Blender v2.92.0 OBJ File: 'CUBE_bauteile.blend'
# www.blender.org
mtllib CUBE_bauteile_hub_4.mtl
o Plane.001_Plane.002
v 6.000000 0.000000 2.000000
v 10.000000 0.000000 2.000000
v 6.000000 0.000000 -2.000000
v 10.000000 0.000000 -2.000000
v 6.000000 4.000000 -2.000000
v 10.000000 4.000000 -2.000000
v 6.000000 4.000000 2.000000
v 10.000000 4.000000 2.000000
vt 0.000000 1.000000
vt 0.000000 0.000000
vt 1.000000 0.000000
vt 1.000000 1.000000
vt 1.000000 1.000000
vt 0.000000 1.000000
vt 0.000000 0.000000
vt 1.000000 0.000000
vn 0.0000 -1.0000 0.0000
vn 0.0000 1.0000 0.0000
g Plane.001_Plane.002_DEkce
usemtl DEkce
s off
f 5/1/1 6/2/1 8/3/1 7/4/1
g Plane.001_Plane.002_Boden
usemtl Boden
f 1/5/2 2/6/2 4/7/2 3/8/2
