# Blender v2.92.0 OBJ File: 'CUBE_bauteile.blend'
# www.blender.org
mtllib CUBE_bauteile_hub_1.mtl
o Plane.004_Plane.005
v 24.000000 0.000000 2.000000
v 28.000000 0.000000 2.000000
v 24.000000 0.000000 -2.000000
v 28.000000 0.000000 -2.000000
v 24.000000 4.000000 -2.000000
v 28.000000 4.000000 -2.000000
v 24.000000 4.000000 2.000000
v 28.000000 4.000000 2.000000
vt 0.002749 0.004863
vt 1.002749 0.004863
vt 1.002749 1.004863
vt 0.002749 1.004863
vt 0.000318 0.997569
vt 1.000318 0.997569
vt 1.000318 -0.002431
vt 0.000318 -0.002431
vt 0.000318 0.000000
vt 1.000318 0.000000
vt 1.000318 1.000000
vt 0.000318 1.000000
vt 1.000000 0.000000
vt 1.000000 1.000000
vt 0.000000 1.000000
vt 0.000000 0.000000
vt 0.002749 -0.002431
vt 0.002749 0.997569
vt 1.002749 0.997569
vt 1.002749 -0.002431
vn 0.0000 1.0000 0.0000
vn 0.0000 -1.0000 0.0000
vn 0.0000 0.0000 1.0000
vn 1.0000 0.0000 0.0000
vn 0.0000 0.0000 -1.0000
g Plane.004_Plane.005_Boden
usemtl Boden
s off
f 1/1/1 2/2/1 4/3/1 3/4/1
g Plane.004_Plane.005_DEkce
usemtl DEkce
f 5/5/2 6/6/2 8/7/2 7/8/2
g Plane.004_Plane.005_Wand
usemtl Wand
f 3/9/3 4/10/3 6/11/3 5/12/3
f 3/13/4 5/14/4 7/15/4 1/16/4
f 1/17/5 7/18/5 8/19/5 2/20/5
