# Blender v2.92.0 OBJ File: 'CUBE_bauteile.blend'
# www.blender.org
mtllib CUBE_deko_pult.mtl
o Plane.009_Plane.010
v -1.400000 0.000000 1.000000
v 1.400000 0.000000 1.000000
v -1.400000 0.000000 -1.000000
v 1.400000 0.000000 -1.000000
v -1.400000 0.100000 -1.000000
v -1.400000 0.100000 1.000000
v 1.400000 0.100000 1.000000
v 1.400000 0.100000 -1.000000
v 1.295000 4.690000 0.639000
v 1.295000 0.090000 0.639000
v 1.295000 5.243283 -0.639000
v 1.295000 0.090000 -0.639000
v 1.205000 5.243283 -0.639000
v 1.205000 4.690000 0.639000
v 1.205000 0.090000 0.639000
v 1.205000 0.090000 -0.639000
v -1.205000 4.690000 0.639000
v -1.205000 0.090000 0.639000
v -1.205000 5.243283 -0.639000
v -1.205000 0.090000 -0.639000
v -1.295000 5.243283 -0.639000
v -1.295000 4.690000 0.639000
v -1.295000 0.090000 0.639000
v -1.295000 0.090000 -0.639000
v -1.210000 2.600000 0.570000
v 1.210000 2.600000 0.570000
v -1.210000 2.600000 -0.570000
v 1.210000 2.600000 -0.570000
v -1.210000 2.700000 -0.570000
v -1.210000 2.700000 0.570000
v 1.210000 2.700000 0.570000
v 1.210000 2.700000 -0.570000
v -1.455200 4.502937 0.832612
v 1.455200 4.502937 0.832612
v -1.455200 5.344158 -0.893987
v 1.455200 5.344158 -0.893987
v -1.455200 5.433444 -0.848954
v -1.455200 4.592223 0.877645
v 1.455200 4.592223 0.877645
v 1.455200 5.433444 -0.848954
v -1.455200 4.457904 0.921898
v 1.455200 4.457904 0.921898
v -1.455200 4.547190 0.966931
v 1.455200 4.547190 0.966931
v -1.455200 4.681509 0.922678
v 1.455200 4.681509 0.922678
v -1.455200 4.636477 1.011964
v 1.455200 4.636477 1.011964
vt 0.252973 1.000000
vt 0.000000 1.000000
vt 0.000000 0.743590
vt 0.252973 0.743590
vt 0.910406 0.266520
vt 0.910406 0.522930
vt 0.655385 0.522930
vt 0.655385 0.266520
vt 0.993669 0.702340
vt 0.993669 0.958750
vt 0.980899 0.958750
vt 0.980899 0.702340
vt 0.984971 0.256410
vt 0.984971 0.512820
vt 0.972150 0.512820
vt 0.972150 0.256410
vt 0.984970 0.000000
vt 0.984970 0.256410
vt 0.972150 0.256410
vt 0.972150 0.000000
vt 0.951953 0.740649
vt 0.951953 0.997060
vt 0.939183 0.997060
vt 0.939183 0.740649
vt 0.491539 0.038462
vt 0.491539 0.743590
vt 0.655385 0.743590
vt 0.655385 0.000000
vt 0.163846 0.705128
vt 0.327692 0.743590
vt 0.327692 0.000000
vt 0.163846 0.000000
vt 0.601951 0.911516
vt 0.610193 0.911516
vt 0.610193 0.743590
vt 0.601951 0.743590
vt 0.955666 0.000000
vt 0.947425 0.000000
vt 0.947425 0.740649
vt 0.955666 0.740649
vt 0.963908 0.702340
vt 0.972150 0.702340
vt 0.972150 0.000000
vt 0.963908 0.000000
vt 0.618435 0.743590
vt 0.610193 0.743590
vt 0.610193 0.906548
vt 0.618435 0.906548
vt 0.327692 0.038462
vt 0.327692 0.743590
vt 0.491539 0.743590
vt 0.491539 0.000000
vt 0.000000 0.705128
vt 0.163846 0.743590
vt 0.163846 0.000000
vt 0.000000 0.000000
vt 0.947425 0.000000
vt 0.939183 0.000000
vt 0.939183 0.740649
vt 0.947425 0.740649
vt 0.955666 0.702340
vt 0.963908 0.702340
vt 0.963908 0.000000
vt 0.955666 0.000000
vt 0.593710 0.743590
vt 0.593710 0.911516
vt 0.601951 0.911516
vt 0.601951 0.743590
vt 0.542529 0.965201
vt 0.398335 0.965201
vt 0.398335 0.743590
vt 0.542529 0.743590
vt 0.398335 0.743590
vt 0.398335 0.965201
vt 0.252973 0.965201
vt 0.252973 0.743590
vt 0.593709 0.743590
vt 0.580889 0.743590
vt 0.580889 0.889744
vt 0.593709 0.889744
vt 0.580889 0.743590
vt 0.568069 0.743590
vt 0.568069 0.889744
vt 0.580889 0.889744
vt 0.568069 0.743590
vt 0.568069 0.965201
vt 0.555299 0.965201
vt 0.555299 0.743590
vt 0.555299 0.743590
vt 0.555299 0.965201
vt 0.542529 0.965201
vt 0.542529 0.743590
vt 0.900625 0.266520
vt 0.655385 0.266520
vt 0.655385 0.000000
vt 0.900625 0.000000
vt 0.898865 0.522930
vt 0.898865 0.789451
vt 0.655385 0.789451
vt 0.655385 0.522930
vt 0.980899 0.702340
vt 0.980899 0.968860
vt 0.968283 0.968860
vt 0.968283 0.702340
vt 0.939015 0.272544
vt 0.926196 0.272376
vt 0.926363 0.259557
vt 0.939183 0.259724
vt 0.939015 0.246234
vt 0.926196 0.246402
vt 0.926363 0.000168
vt 0.939183 0.000000
vt 0.939183 0.518777
vt 0.926363 0.518610
vt 0.924098 0.522930
vt 0.924098 0.789451
vt 0.911482 0.789451
vt 0.911482 0.522930
vt 0.926363 0.259221
vt 0.913544 0.259389
vt 0.913376 0.246569
vt 0.913376 0.000000
vt 0.913376 0.266520
vt 0.939183 0.259053
vt 0.924098 0.789451
vt 0.924098 0.522930
vt 0.936748 0.522930
vt 0.936748 0.789451
vt 0.968283 0.702340
vt 0.968283 0.968860
vt 0.955667 0.968860
vt 0.955667 0.702340
vt 0.913376 0.272208
vt 0.913544 0.259389
vt 0.898865 0.789451
vt 0.898865 0.522930
vn 0.0000 -1.0000 0.0000
vn 0.0000 1.0000 0.0000
vn 0.0000 0.0000 1.0000
vn 1.0000 0.0000 0.0000
vn -1.0000 0.0000 0.0000
vn 0.0000 0.0000 -1.0000
vn 0.0000 0.9177 0.3973
vn 0.0000 -0.8990 -0.4380
vn 0.0000 0.8990 0.4380
vn 0.0000 0.4503 -0.8929
vn 0.0000 -0.4503 0.8929
vn 0.0000 -0.8929 -0.4503
vn 0.0000 0.8929 0.4503
g Plane.009_Plane.010_None
usemtl None
s off
f 1/1/1 3/2/1 4/3/1 2/4/1
f 6/5/2 7/6/2 8/7/2 5/8/2
f 1/9/3 2/10/3 7/11/3 6/12/3
f 2/13/4 4/14/4 8/15/4 7/16/4
f 3/17/5 1/18/5 6/19/5 5/20/5
f 4/21/6 3/22/6 5/23/6 8/24/6
f 9/25/4 10/26/4 12/27/4 11/28/4
f 14/29/5 13/30/5 16/31/5 15/32/5
f 11/33/7 13/34/7 14/35/7 9/36/7
f 12/37/6 16/38/6 13/39/6 11/40/6
f 9/41/3 14/42/3 15/43/3 10/44/3
f 10/45/1 15/46/1 16/47/1 12/48/1
f 17/49/4 18/50/4 20/51/4 19/52/4
f 22/53/5 21/54/5 24/55/5 23/56/5
f 20/57/6 24/58/6 21/59/6 19/60/6
f 17/61/3 22/62/3 23/63/3 18/64/3
f 17/65/7 19/66/7 21/67/7 22/68/7
f 25/69/1 27/70/1 28/71/1 26/72/1
f 30/73/2 31/74/2 32/75/2 29/76/2
f 26/77/5 31/78/5 32/79/5 28/80/5
f 27/81/4 29/82/4 30/83/4 25/84/4
f 28/85/6 27/86/6 29/87/6 32/88/6
f 25/89/3 26/90/3 31/91/3 30/92/3
f 33/93/8 35/94/8 36/95/8 34/96/8
f 38/97/9 39/98/9 40/99/9 37/100/9
f 36/101/10 35/102/10 37/103/10 40/104/10
f 34/105/4 39/106/4 44/107/4 42/108/4
f 33/109/5 38/110/5 37/111/5 35/112/5
f 36/113/4 40/114/4 39/106/4 34/105/4
f 41/115/11 42/116/11 44/117/11 43/118/11
f 38/110/5 43/119/5 47/120/5 45/121/5
f 33/93/12 34/96/12 42/122/12 41/123/12
f 38/110/5 33/109/5 41/124/5 43/119/5
f 46/125/13 45/126/13 47/127/13 48/128/13
f 39/129/10 38/130/10 45/131/10 46/132/10
f 44/107/4 39/106/4 46/133/4 48/134/4
f 43/118/11 44/117/11 48/135/11 47/136/11
f 20/57/1 18/64/1 23/56/1 24/58/1
