# Blender v2.92.0 OBJ File: 'key.blend'
# www.blender.org
o Cube
v 0.898347 0.898347 -10.000000
v 0.898347 -0.898347 -10.000000
v -0.898347 0.898347 -10.000000
v -0.898347 -0.898347 -10.000000
v 1.003257 -0.194000 -19.000000
v -1.003257 -0.194000 -19.000000
v 1.003257 0.194000 -19.000000
v -1.003257 0.194000 -19.000000
v 5.016287 -0.970000 -11.522420
v 4.509344 -0.973787 -10.873778
v 4.493866 -0.970000 -11.000000
v 4.593134 -0.888175 -11.295245
v -4.509344 -0.973787 -10.873778
v -5.016287 -0.970000 -11.522420
v -4.593134 -0.888175 -11.295245
v -4.493866 -0.970000 -11.000000
v 4.509344 0.973787 -10.873778
v 5.016287 0.970000 -11.522420
v 4.593134 0.888175 -11.295245
v 4.493866 0.970000 -11.000000
v -5.016287 0.970000 -11.522420
v -4.509344 0.973787 -10.873778
v -4.493866 0.970000 -11.000000
v -4.593134 0.888175 -11.295245
v 4.509368 -0.871977 -18.126318
v 5.016287 -0.970000 -17.477579
v 4.593134 -0.888175 -17.704756
v 4.493866 -0.970000 -18.000000
v -5.016287 -0.970000 -17.477579
v -4.509368 -0.871977 -18.126318
v -4.493866 -0.970000 -18.000000
v -4.593134 -0.888175 -17.704756
v 5.016287 0.970000 -17.477579
v 4.509368 0.871977 -18.126318
v 4.493866 0.970000 -18.000000
v 4.593134 0.888175 -17.704756
v -4.509368 0.871977 -18.126318
v -5.016287 0.970000 -17.477579
v -4.593134 0.888175 -17.704756
v -4.493866 0.970000 -18.000000
v 3.004714 -0.682042 -12.039022
v 3.527134 -0.682042 -12.561442
v 3.950287 -0.763867 -11.743777
v -3.527134 -0.682042 -12.561442
v -3.004714 -0.682042 -12.039022
v -3.950287 -0.763867 -11.743777
v -3.004714 0.682042 -12.039022
v -3.527134 0.682042 -12.561442
v -3.950287 0.763867 -11.743777
v 3.527134 0.682042 -12.561442
v 3.004714 0.682042 -12.039022
v 3.950287 0.763867 -11.743777
v 3.527134 -0.682042 -16.438557
v 3.004714 -0.682042 -16.960978
v 3.950287 -0.763867 -17.256222
v -3.004714 -0.682042 -16.960978
v -3.527134 -0.682042 -16.438557
v -3.950287 -0.763867 -17.256222
v -3.527134 0.682042 -16.438557
v -3.004714 0.682042 -16.960978
v -3.950287 0.763867 -17.256222
v 3.004714 0.682042 -16.960978
v 3.527134 0.682042 -16.438557
v 3.950287 0.763867 -17.256222
v -0.887866 -0.567279 6.001000
v -0.567279 -0.887866 6.001000
v -0.567279 0.887866 6.001000
v -0.887866 0.567279 6.001000
v -0.567279 -0.887866 -10.074732
v -0.887866 -0.567279 -10.074732
v -0.887866 0.567279 -10.074732
v -0.567279 0.887866 -10.074732
v 0.567279 -0.887866 6.001000
v 0.887866 -0.567279 6.001000
v 0.887866 0.567279 6.001000
v 0.567279 0.887866 6.001000
v 0.887866 -0.567279 -10.074732
v 0.567279 -0.887866 -10.074732
v 0.567279 0.887866 -10.074732
v 0.887866 0.567279 -10.074732
v 0.592397 -0.592397 -9.245152
v -0.592397 -0.592397 -9.245152
v 0.592397 0.592397 -9.245152
v -0.592397 0.592397 -9.245152
v -0.567279 -0.887866 -5.786717
v -0.567279 -0.887866 -7.237183
v -0.567279 -0.887866 -3.107428
v -0.567279 -0.887866 -4.557893
v -0.567279 -0.887866 -0.428139
v -0.567279 -0.887866 -1.878605
v -0.567279 -0.887866 2.251150
v -0.567279 -0.887866 0.800684
v -0.567279 -0.887866 4.930438
v -0.567279 -0.887866 3.479972
v -0.887866 -0.567279 4.930438
v -0.887866 -0.567279 3.479972
v -0.887866 -0.567279 2.251149
v -0.887866 -0.567279 0.800684
v -0.887866 -0.567279 -0.428139
v -0.887866 -0.567279 -1.878605
v -0.887866 -0.567279 -3.107428
v -0.887866 -0.567279 -4.557894
v -0.887866 -0.567279 -5.786717
v -0.887866 -0.567279 -7.237183
v -0.567279 0.887866 4.930438
v -0.567279 0.887866 3.479972
v -0.567279 0.887866 2.251149
v -0.567279 0.887866 0.800684
v -0.567279 0.887866 -0.428139
v -0.567279 0.887866 -1.878605
v -0.567279 0.887866 -3.107428
v -0.567279 0.887866 -4.557894
v -0.567279 0.887866 -5.786717
v -0.567279 0.887866 -7.237183
v -0.887866 0.567279 -7.237183
v -0.887866 0.567279 -5.786717
v -0.887866 0.567279 -4.557893
v -0.887866 0.567279 -3.107428
v -0.887866 0.567279 -1.878605
v -0.887866 0.567279 -0.428139
v -0.887866 0.567279 0.800684
v -0.887866 0.567279 2.251150
v -0.887866 0.567279 3.479972
v -0.887866 0.567279 4.930438
v 0.567279 -0.887866 3.479972
v 0.567279 -0.887866 4.930438
v 0.567279 -0.887866 0.800684
v 0.567279 -0.887866 2.251149
v 0.567279 -0.887866 -1.878605
v 0.567279 -0.887866 -0.428139
v 0.567279 -0.887866 -4.557894
v 0.567279 -0.887866 -3.107428
v 0.567279 -0.887866 -7.237183
v 0.567279 -0.887866 -5.786717
v 0.887866 -0.567279 -7.237183
v 0.887866 -0.567279 -5.786717
v 0.887866 -0.567279 -4.557893
v 0.887866 -0.567279 -3.107428
v 0.887866 -0.567279 -1.878605
v 0.887866 -0.567279 -0.428139
v 0.887866 -0.567279 0.800684
v 0.887866 -0.567279 2.251150
v 0.887866 -0.567279 3.479972
v 0.887866 -0.567279 4.930438
v 0.567279 0.887866 -7.237183
v 0.567279 0.887866 -5.786717
v 0.567279 0.887866 -4.557893
v 0.567279 0.887866 -3.107428
v 0.567279 0.887866 -1.878605
v 0.567279 0.887866 -0.428139
v 0.567279 0.887866 0.800684
v 0.567279 0.887866 2.251150
v 0.567279 0.887866 3.479972
v 0.567279 0.887866 4.930438
v 0.887866 0.567279 4.930438
v 0.887866 0.567279 3.479972
v 0.887866 0.567279 2.251149
v 0.887866 0.567279 0.800684
v 0.887866 0.567279 -0.428139
v 0.887866 0.567279 -1.878605
v 0.887866 0.567279 -3.107428
v 0.887866 0.567279 -4.557894
v 0.887866 0.567279 -5.786717
v 0.887866 0.567279 -7.237183
v 2.101934 -0.567279 -3.107428
v 2.459230 -0.209983 -3.107428
v 2.459230 -0.209983 -4.557893
v 2.101934 -0.567279 -4.557893
v 2.101934 0.567279 -4.557894
v 2.459230 0.209983 -4.557894
v 2.459230 0.209983 -3.107428
v 2.101934 0.567279 -3.107428
v 5.889221 0.209983 -1.878605
v 5.531925 0.567279 -1.878605
v 5.531925 -0.567279 -1.878605
v 5.889221 -0.209983 -1.878605
v 5.889221 -0.209983 -3.107428
v 5.531925 -0.567279 -3.107428
v 5.531925 0.567279 -3.107428
v 5.889221 0.209983 -3.107428
v 3.129203 0.209983 0.800684
v 2.771907 0.567279 0.800684
v 2.771907 -0.567279 0.800684
v 3.129203 -0.209983 0.800684
v 3.129203 -0.209983 -0.428139
v 2.771907 -0.567279 -0.428139
v 2.771907 0.567279 -0.428139
v 3.129203 0.209983 -0.428139
v 2.328919 0.209983 3.479972
v 1.971624 0.567279 3.479972
v 1.971624 -0.567279 3.479972
v 2.328919 -0.209983 3.479972
v 2.328919 -0.209983 2.251149
v 1.971624 -0.567279 2.251150
v 1.971624 0.567279 2.251149
v 2.328919 0.209983 2.251149
v 4.306687 -0.567279 4.930438
v 4.663982 -0.209983 4.930438
v 4.663982 -0.209983 3.479972
v 4.306687 -0.567279 3.479972
v 4.306687 0.567279 3.479972
v 4.663982 0.209983 3.479972
v 4.663982 0.209983 4.930438
v 4.306687 0.567279 4.930438
v 1.046275 -0.567279 -0.428139
v 1.223738 -0.389815 -0.428139
v 1.223738 -0.389815 -1.878605
v 1.046275 -0.567279 -1.878605
v 1.046275 0.567279 -1.878605
v 1.223738 0.389815 -1.878605
v 1.223738 0.389815 -0.428139
v 1.046275 0.567279 -0.428139
vt 0.375000 0.250000
vt 0.375000 0.250000
vt 0.375000 0.250000
vt 0.375000 0.250000
vt 0.375000 0.250000
vt 0.375000 0.250000
vt 0.375000 0.250000
vt 0.375000 0.250000
vt 0.375000 0.250000
vt 0.625000 0.250000
vt 0.625000 0.250000
vt 0.375000 0.250000
vt 0.625000 0.500000
vt 0.375000 0.500000
vt 0.375000 0.500000
vt 0.625000 0.500000
vt 0.625000 0.500000
vt 0.625000 0.500000
vt 0.625000 0.500000
vt 0.625000 0.500000
vt 0.625000 0.500000
vt 0.625000 0.500000
vt 0.375000 0.500000
vt 0.125000 0.500000
vt 0.125000 0.500000
vt 0.138018 0.500000
vt 0.361982 0.500000
vt 0.375000 0.500000
vt 0.375000 0.481486
vt 0.375000 0.268514
vt 0.856486 0.500000
vt 0.643514 0.500000
vt 0.875000 0.500000
vt 0.625000 0.500000
vt 0.625000 0.500000
vt 0.638018 0.500000
vt 0.861982 0.500000
vt 0.875000 0.500000
vt 0.625000 0.250000
vt 0.625000 0.250000
vt 0.375000 0.500000
vt 0.375000 0.500000
vt 0.375000 0.500000
vt 0.375000 0.500000
vt 0.375000 0.500000
vt 0.375000 0.500000
vt 0.375000 0.250000
vt 0.625000 0.250000
vt 0.625000 0.500000
vt 0.375000 0.500000
vt 0.375000 0.250000
vt 0.625000 0.250000
vt 0.638018 0.500000
vt 0.861982 0.500000
vt 0.875000 0.500000
vt 0.875000 0.500000
vt 0.856486 0.500000
vt 0.643514 0.500000
vt 0.625000 0.500000
vt 0.375000 0.500000
vt 0.125000 0.500000
vt 0.138018 0.500000
vt 0.361982 0.500000
vt 0.356486 0.500000
vt 0.143514 0.500000
vt 0.125000 0.500000
vt 0.125000 0.500000
vt 0.125000 0.500000
vt 0.625000 0.250000
vt 0.625000 0.250000
vt 0.625000 0.250000
vt 0.625000 0.250000
vt 0.625000 0.250000
vt 0.625000 0.250000
vt 0.875000 0.500000
vt 0.875000 0.500000
vt 0.875000 0.500000
vt 0.875000 0.500000
vt 0.651535 0.276535
vt 0.848465 0.473465
vt 0.374512 0.500000
vt 0.125000 0.500000
vt 0.135544 0.500000
vt 0.624936 0.500000
vt 0.625000 0.250000
vt 0.372878 0.500000
vt 0.375000 0.250000
vt 0.612368 0.500000
vt 0.612368 0.250000
vt 0.625000 0.250000
vt 0.356486 0.500000
vt 0.375000 0.250000
vt 0.625000 0.250000
vt 0.625000 0.500000
vt 0.375000 0.500000
vt 0.375000 0.250000
vt 0.625000 0.250000
vt 0.875000 0.500000
vt 0.125000 0.500000
vt 0.125000 0.500000
vt 0.143514 0.500000
vt 0.375000 0.795135
vt 0.420135 0.750000
vt 0.579866 0.750000
vt 0.625000 0.795135
vt 0.625000 0.954865
vt 0.579866 1.000000
vt 0.420135 1.000000
vt 0.375000 0.954865
vt 0.670135 0.500000
vt 0.670135 0.530388
vt 0.579865 0.530388
vt 0.579866 0.500000
vt 0.625000 0.052945
vt 0.625000 0.072055
vt 0.579865 0.072055
vt 0.579865 0.052945
vt 0.625000 0.000000
vt 0.625000 0.030388
vt 0.579865 0.030388
vt 0.579866 0.000000
vt 0.375000 0.295135
vt 0.420135 0.250000
vt 0.579866 0.250000
vt 0.625000 0.295135
vt 0.625000 0.454865
vt 0.420135 0.500000
vt 0.375000 0.454865
vt 0.420135 0.000000
vt 0.420135 0.030388
vt 0.329865 0.750000
vt 0.329865 0.719612
vt 0.420135 0.719612
vt 0.420135 0.530388
vt 0.420135 0.697055
vt 0.420135 0.697055
vt 0.420135 0.719612
vt 0.170135 0.719612
vt 0.170135 0.750000
vt 0.125000 0.750000
vt 0.125000 0.719612
vt 0.375000 0.250000
vt 0.625000 0.250000
vt 0.375000 0.500000
vt 0.625000 0.500000
vt 0.875000 0.500000
vt 0.125000 0.500000
vt 0.170135 0.552945
vt 0.170135 0.572055
vt 0.125000 0.572055
vt 0.125000 0.552945
vt 0.170135 0.594612
vt 0.170135 0.613722
vt 0.125000 0.613722
vt 0.125000 0.594612
vt 0.170135 0.636278
vt 0.170135 0.655388
vt 0.125000 0.655388
vt 0.125000 0.636278
vt 0.170135 0.677945
vt 0.170135 0.697055
vt 0.125000 0.697055
vt 0.125000 0.677945
vt 0.670135 0.552945
vt 0.670135 0.572055
vt 0.579865 0.572055
vt 0.579865 0.552945
vt 0.670135 0.594612
vt 0.670135 0.613722
vt 0.579865 0.613722
vt 0.579865 0.594612
vt 0.670135 0.636278
vt 0.670135 0.655388
vt 0.579866 0.655388
vt 0.579866 0.636278
vt 0.670135 0.677945
vt 0.670135 0.697055
vt 0.579866 0.697055
vt 0.579866 0.677945
vt 0.670135 0.719612
vt 0.670135 0.750000
vt 0.579866 0.719612
vt 0.329865 0.697055
vt 0.329865 0.677945
vt 0.420135 0.677945
vt 0.329865 0.655388
vt 0.329865 0.636278
vt 0.420135 0.636278
vt 0.420135 0.655388
vt 0.329865 0.613722
vt 0.329865 0.594612
vt 0.420135 0.594612
vt 0.420135 0.613722
vt 0.329865 0.572055
vt 0.329865 0.552945
vt 0.420135 0.552945
vt 0.420135 0.572055
vt 0.329865 0.530388
vt 0.329865 0.500000
vt 0.829865 0.677945
vt 0.829865 0.697055
vt 0.829865 0.636278
vt 0.829865 0.655388
vt 0.829865 0.594612
vt 0.829865 0.613722
vt 0.829865 0.552945
vt 0.829865 0.572055
vt 0.829865 0.500000
vt 0.829865 0.530388
vt 0.170135 0.500000
vt 0.170135 0.530388
vt 0.420135 0.052945
vt 0.420135 0.072055
vt 0.420135 0.094612
vt 0.579865 0.094612
vt 0.579865 0.113722
vt 0.420135 0.113722
vt 0.420135 0.136278
vt 0.579865 0.136278
vt 0.579866 0.155388
vt 0.420135 0.155388
vt 0.420135 0.177945
vt 0.579866 0.177945
vt 0.579866 0.197055
vt 0.420135 0.197055
vt 0.420135 0.219612
vt 0.579866 0.219612
vt 0.625000 0.219612
vt 0.625000 0.250000
vt 0.625000 0.177945
vt 0.625000 0.197055
vt 0.625000 0.136278
vt 0.625000 0.155388
vt 0.625000 0.094612
vt 0.625000 0.113722
vt 0.829865 0.719612
vt 0.829865 0.750000
vt 0.420135 0.655388
vt 0.470437 0.655388
vt 0.529563 0.655388
vt 0.579866 0.655388
vt 0.579866 0.697055
vt 0.579866 0.677945
vt 0.420135 0.677945
vt 0.420135 0.697055
vt 0.125000 0.530388
vt 0.579865 0.613722
vt 0.579865 0.594612
vt 0.420135 0.613722
vt 0.420135 0.636278
vt 0.579866 0.719612
vt 0.579866 0.697055
vt 0.125000 0.500000
vt 0.529563 0.697055
vt 0.470437 0.697055
vt 0.529563 0.719612
vt 0.470437 0.719612
vt 0.470437 0.697055
vt 0.529563 0.697055
vt 0.529563 0.677945
vt 0.470437 0.677945
vt 0.420135 0.636278
vt 0.579865 0.636278
vt 0.529563 0.636278
vt 0.470437 0.636278
vt 0.445119 0.636278
vt 0.554881 0.636278
vt 0.579865 0.636278
vt 0.579865 0.613722
vt 0.554881 0.613722
vt 0.445119 0.613722
vt 0.420135 0.613722
vt 0.470437 0.613722
vt 0.529563 0.613722
vt 0.420135 0.594612
vt 0.529563 0.594612
vt 0.470437 0.594612
vt 0.420135 0.572055
vt 0.420135 0.594612
vt 0.529563 0.594612
vt 0.470437 0.594612
vt 0.470437 0.572055
vt 0.529563 0.572055
vt 0.579865 0.594612
vt 0.579865 0.572055
vn 0.1899 -0.9818 0.0000
vn -0.2352 0.0000 0.9719
vn 1.0000 0.0000 0.0000
vn -0.1899 0.9818 0.0000
vn 0.0000 -0.9980 0.0637
vn 0.0000 0.0000 -1.0000
vn 0.0000 0.9980 0.0637
vn -1.0000 0.0000 0.0000
vn -0.1899 -0.9818 -0.0000
vn -0.2418 0.0000 -0.9703
vn 0.0000 0.9637 0.2671
vn 0.2418 0.0000 -0.9703
vn 0.0000 -0.9637 0.2671
vn 0.0000 -0.7900 -0.6131
vn 0.1899 0.9818 -0.0000
vn 0.0000 0.9637 -0.2671
vn 0.2352 0.0000 0.9719
vn 0.0000 0.7900 -0.6131
vn 0.0000 0.0000 1.0000
vn -0.2387 -0.9413 -0.2387
vn 0.2387 -0.9413 -0.2387
vn -0.2387 0.9413 -0.2387
vn 0.2387 0.9413 -0.2387
vn 0.0478 -0.9977 -0.0478
vn -0.0478 -0.9977 -0.0478
vn 0.0478 0.9977 -0.0478
vn -0.0478 0.9977 -0.0478
vn -0.0657 -0.9957 -0.0657
vn 0.0657 -0.9957 -0.0657
vn 0.0657 0.9957 -0.0657
vn -0.0657 0.9957 -0.0657
vn -0.0657 -0.9957 0.0657
vn 0.0657 -0.9957 0.0657
vn 0.0657 0.9957 0.0657
vn -0.0657 0.9957 0.0657
vn 0.7879 0.0000 0.6158
vn -0.7879 0.0000 0.6158
vn 0.7880 0.0000 -0.6157
vn -0.7880 0.0000 -0.6157
vn 0.7071 0.0000 0.7071
vn 0.7071 0.0000 -0.7071
vn -0.7071 0.0000 0.7071
vn -0.7071 0.0000 -0.7071
vn 0.0000 -0.9637 -0.2671
vn 0.7071 0.7071 0.0000
vn -0.7071 0.7071 0.0000
vn 0.7071 -0.7071 -0.0000
vn 0.0000 -1.0000 0.0000
vn -0.7071 -0.7071 -0.0000
vn -0.9268 0.0000 0.3756
vn 0.0000 -0.9268 0.3756
vn 0.0000 0.9268 0.3756
vn 0.9268 0.0000 0.3756
vn 0.0000 1.0000 0.0000
s off
f 15/1/1 14/2/1 29/3/1 32/4/1 58/5/1 57/6/1 44/7/1 46/8/1
f 4/9/2 3/10/2 22/11/2 13/12/2
f 18/13/3 9/14/3 26/15/3 33/16/3
f 19/17/4 18/13/4 33/16/4 36/18/4 64/19/4 63/20/4 50/21/4 52/22/4
f 2/23/5 4/24/5 13/25/5 16/26/5 11/27/5 10/28/5
f 41/29/6 45/30/6 47/31/6 51/32/6
f 3/33/7 1/34/7 17/35/7 20/36/7 23/37/7 22/38/7
f 14/2/8 21/39/8 38/40/8 29/3/8
f 27/41/9 26/15/9 9/14/9 12/42/9 43/43/9 42/44/9 53/45/9 55/46/9
f 6/47/6 8/48/6 7/49/6 5/50/6
f 30/51/10 37/52/10 8/48/10 6/47/10
f 36/18/11 35/53/11 40/54/11 39/55/11 61/56/11 60/57/11 62/58/11 64/19/11
f 34/59/12 25/60/12 5/50/12 7/49/12
f 32/61/13 31/62/13 28/63/13 27/41/13 55/46/13 54/64/13 56/65/13 58/66/13
f 25/60/14 28/63/14 31/62/14 30/67/14 6/68/14 5/50/14
f 39/69/15 38/40/15 21/39/15 24/70/15 49/71/15 48/72/15 59/73/15 61/74/15
f 24/75/16 23/37/16 20/36/16 19/17/16 52/22/16 51/32/16 47/31/16 49/76/16
f 1/34/17 2/23/17 10/28/17 17/35/17
f 37/77/18 40/54/18 35/53/18 34/59/18 7/49/18 8/78/18
f 48/79/3 44/7/3 57/6/3 59/80/3
f 54/64/19 62/58/19 60/57/19 56/65/19
f 53/45/8 42/44/8 50/21/8 63/20/8
f 9/14/20 10/81/20 11/27/20 12/42/20
f 13/25/21 14/82/21 15/83/21 16/26/21
f 17/35/22 18/84/22 19/17/22 20/36/22
f 21/39/23 22/11/23 23/85/23 24/70/23
f 25/60/24 26/86/24 27/41/24 28/63/24
f 29/3/25 30/51/25 31/87/25 32/4/25
f 33/16/26 34/88/26 35/53/26 36/18/26
f 37/89/27 38/40/27 39/69/27 40/90/27
f 41/91/28 42/44/28 43/43/28
f 44/7/29 45/92/29 46/8/29
f 47/93/30 48/72/30 49/71/30
f 50/21/31 51/94/31 52/22/31
f 53/45/32 54/95/32 55/46/32
f 56/96/33 57/6/33 58/5/33
f 59/73/34 60/97/34 61/74/34
f 62/58/35 63/20/35 64/19/35
f 17/35/36 10/28/36 9/14/36 18/13/36
f 21/39/37 14/2/37 13/12/37 22/11/37
f 33/16/38 26/15/38 25/60/38 34/59/38
f 37/52/39 30/51/39 29/3/39 38/40/39
f 56/96/40 60/98/40 59/80/40 57/6/40
f 44/7/41 48/79/41 47/93/41 45/92/41
f 53/45/42 63/20/42 62/58/42 54/64/42
f 41/29/43 51/32/43 50/21/43 42/44/43
f 12/42/44 11/27/44 16/26/44 15/99/44 46/100/44 45/101/44 41/91/44 43/43/44
f 73/102/19 74/103/19 75/104/19 76/105/19 67/106/19 68/107/19 65/108/19 66/109/19
f 79/110/45 145/111/45 164/112/45 80/113/45
f 106/114/46 107/115/46 122/116/46 123/117/46
f 67/118/46 105/119/46 124/120/46 68/121/46
f 69/122/6 70/123/6 71/124/6 72/125/6 79/126/6 80/113/6 77/127/6 78/128/6
f 65/129/8 68/121/8 124/120/8 95/130/8
f 73/131/47 126/132/47 144/133/47 74/103/47
f 77/127/3 80/113/3 164/112/3 135/134/3
f 144/133/48 143/135/48 200/136/48 197/137/48
f 93/138/49 66/139/49 65/140/49 95/141/49
f 3/10/50 4/9/50 82/142/50 84/143/50
f 81/144/19 83/145/19 84/146/19 82/142/19
f 4/24/51 2/23/51 81/144/51 82/147/51
f 1/34/52 3/33/52 84/146/52 83/145/52
f 2/23/53 1/34/53 83/145/53 81/144/53
f 85/148/49 88/149/49 102/150/49 103/151/49
f 87/152/49 90/153/49 100/154/49 101/155/49
f 89/156/49 92/157/49 98/158/49 99/159/49
f 91/160/49 94/161/49 96/162/49 97/163/49
f 93/138/48 126/132/48 73/131/48 66/139/48
f 146/164/45 147/165/45 162/166/45 163/167/45
f 148/168/45 149/169/45 160/170/45 161/171/45
f 150/172/45 151/173/45 158/174/45 159/175/45
f 152/176/45 153/177/45 156/178/45 157/179/45
f 154/180/45 76/181/45 75/104/45 155/182/45
f 125/183/47 128/184/47 142/185/47 143/135/47
f 127/186/47 130/187/47 140/188/47 141/189/47
f 129/190/47 132/191/47 138/192/47 139/193/47
f 131/194/47 134/195/47 136/196/47 137/197/47
f 133/198/47 78/199/47 77/127/47 135/134/47
f 152/176/54 107/200/54 106/201/54 153/177/54
f 150/172/54 109/202/54 108/203/54 151/173/54
f 148/168/54 111/204/54 110/205/54 149/169/54
f 146/164/54 113/206/54 112/207/54 147/165/54
f 79/110/54 72/208/54 114/209/54 145/111/54
f 69/210/48 78/199/48 133/198/48 86/211/48
f 85/148/48 134/195/48 131/194/48 88/149/48
f 87/152/48 132/191/48 129/190/48 90/153/48
f 89/156/48 130/187/48 127/186/48 92/157/48
f 91/160/48 128/184/48 125/183/48 94/161/48
f 96/212/8 123/117/8 122/116/8 97/213/8
f 98/214/8 121/215/8 120/216/8 99/217/8
f 100/218/8 119/219/8 118/220/8 101/221/8
f 102/222/8 117/223/8 116/224/8 103/225/8
f 104/226/8 115/227/8 71/124/8 70/123/8
f 114/228/46 72/229/46 71/124/46 115/227/46
f 112/230/46 113/231/46 116/224/46 117/223/46
f 110/232/46 111/233/46 118/220/46 119/219/46
f 108/234/46 109/235/46 120/216/46 121/215/46
f 154/180/54 105/236/54 67/237/54 76/181/54
f 136/196/3 163/167/3 162/166/3 137/197/3
f 158/174/19 141/189/19 183/238/19 184/239/19 181/240/19 182/241/19
f 157/179/54 156/178/54 190/242/54 195/243/54
f 143/135/48 142/185/48 194/244/48 191/245/48
f 144/133/3 155/182/3 75/104/3 74/103/3
f 134/195/48 85/148/48 86/211/48 133/198/48
f 132/191/48 87/152/48 88/149/48 131/194/48
f 130/187/48 89/156/48 90/153/48 129/190/48
f 128/184/48 91/160/48 92/157/48 127/186/48
f 126/132/48 93/138/48 94/161/48 125/183/48
f 146/164/45 163/167/45 164/112/45 145/111/45
f 148/168/45 161/171/45 162/166/45 147/165/45
f 150/172/45 159/175/45 160/170/45 149/169/45
f 152/176/45 157/179/45 158/174/45 151/173/45
f 154/180/45 155/182/45 156/178/45 153/177/45
f 125/183/47 143/135/47 144/133/47 126/132/47
f 127/186/47 141/189/47 142/185/47 128/184/47
f 129/190/47 139/193/47 140/188/47 130/187/47
f 131/194/47 137/197/47 138/192/47 132/191/47
f 133/198/47 135/134/47 136/196/47 134/195/47
f 106/114/46 123/117/46 124/120/46 105/119/46
f 108/234/46 121/215/46 122/116/46 107/115/46
f 110/232/46 119/219/46 120/216/46 109/235/46
f 112/230/46 117/223/46 118/220/46 111/233/46
f 114/228/46 115/227/46 116/224/46 113/231/46
f 85/148/49 103/151/49 104/246/49 86/211/49
f 87/152/49 101/155/49 102/150/49 88/149/49
f 89/156/49 99/159/49 100/154/49 90/153/49
f 91/160/49 97/163/49 98/158/49 92/157/49
f 93/138/49 95/141/49 96/162/49 94/161/49
f 123/117/8 96/212/8 95/130/8 124/120/8
f 121/215/8 98/214/8 97/213/8 122/116/8
f 119/219/8 100/218/8 99/217/8 120/216/8
f 117/223/8 102/222/8 101/221/8 118/220/8
f 115/227/8 104/226/8 103/225/8 116/224/8
f 113/206/54 146/164/54 145/111/54 114/209/54
f 111/204/54 148/168/54 147/165/54 112/207/54
f 109/202/54 150/172/54 149/169/54 110/205/54
f 107/200/54 152/176/54 151/173/54 108/203/54
f 105/236/54 154/180/54 153/177/54 106/201/54
f 163/167/3 136/196/3 135/134/3 164/112/3
f 161/171/54 160/170/54 174/247/54 179/248/54
f 140/188/48 139/193/48 208/249/48 205/250/48
f 157/179/3 142/185/3 141/189/3 158/174/3
f 156/178/54 155/182/54 204/251/54 201/252/54
f 69/210/49 86/211/49 104/246/49 70/253/49
f 143/135/6 156/178/6 201/252/6 202/254/6 199/255/6 200/136/6
f 203/256/3 198/257/3 199/255/3 202/254/3
f 156/178/19 143/135/19 191/245/19 192/258/19 189/259/19 190/242/19
f 142/185/6 157/179/6 195/243/6 196/260/6 193/261/6 194/244/6
f 193/261/3 196/260/3 189/259/3 192/258/3
f 155/182/19 144/133/19 197/137/19 198/257/19 203/256/19 204/251/19
f 141/189/48 140/188/48 186/262/48 183/238/48
f 140/188/6 159/175/6 187/263/6 188/264/6 185/265/6 186/262/6
f 185/265/3 188/264/3 181/240/3 184/239/3
f 159/175/54 158/174/54 182/241/54 187/263/54
f 159/175/19 140/188/19 205/250/19 206/266/19 211/267/19 212/268/19
f 160/170/54 159/175/54 212/268/54 209/269/54
f 139/193/6 160/170/6 209/269/6 210/270/6 207/271/6 208/249/6
f 160/170/19 139/193/19 175/272/19 176/273/19 173/274/19 174/247/19
f 139/193/48 138/192/48 178/275/48 175/272/48
f 138/192/6 161/171/6 179/248/6 180/276/6 177/277/6 178/275/6
f 177/277/3 180/276/3 173/274/3 176/273/3
f 138/192/48 137/197/48 168/278/48 165/279/48
f 171/280/3 166/281/3 167/282/3 170/283/3
f 162/166/54 161/171/54 172/284/54 169/285/54
f 137/197/6 162/166/6 169/285/6 170/283/6 167/282/6 168/278/6
f 185/265/47 184/239/47 183/238/47 186/262/47
f 203/256/45 202/254/45 201/252/45 204/251/45
f 167/282/47 166/281/47 165/279/47 168/278/47
f 171/280/45 170/283/45 169/285/45 172/284/45
f 179/248/45 174/247/45 173/274/45 180/276/45
f 195/243/45 190/242/45 189/259/45 196/260/45
f 199/255/47 198/257/47 197/137/47 200/136/47
f 193/261/47 192/258/47 191/245/47 194/244/47
f 177/277/47 176/273/47 175/272/47 178/275/47
f 187/263/45 182/241/45 181/240/45 188/264/45
f 161/171/19 138/192/19 165/279/19 166/281/19 171/280/19 172/284/19
f 211/267/45 210/270/45 209/269/45 212/268/45
f 207/271/47 206/266/47 205/250/47 208/249/47
f 211/267/3 206/266/3 207/271/3 210/270/3
