# Blender v2.92.0 OBJ File: 'CUBE_bauteile.blend'
# www.blender.org
mtllib CUBE_bauteile_minispiel_4.mtl
o Plane.007
v -28.000000 0.000000 14.000000
v -12.000000 0.000000 14.000000
v -28.000000 0.000000 -2.000000
v -12.000000 0.000000 -2.000000
v -28.000000 0.000000 2.000000
v -28.000000 0.000000 6.000000
v -28.000000 0.000000 10.000000
v -12.000000 0.000000 10.000000
v -12.000000 0.000000 6.000000
v -12.000000 0.000000 2.000000
v -24.000000 0.000000 14.000000
v -20.000000 0.000000 14.000000
v -16.000000 0.000000 14.000000
v -16.000000 0.000000 -2.000000
v -20.000000 0.000000 -2.000000
v -24.000000 0.000000 -2.000000
v -16.000000 0.000000 10.000000
v -20.000000 0.000000 10.000000
v -24.000000 0.000000 10.000000
v -16.000000 0.000000 6.000000
v -20.000000 0.000000 6.000000
v -24.000000 0.000000 6.000000
v -16.000000 0.000000 2.000000
v -20.000000 0.000000 2.000000
v -24.000000 0.000000 2.000000
v -28.000000 4.000000 14.000000
v -12.000000 4.000000 14.000000
v -28.000000 4.000000 -2.000000
v -12.000000 4.000000 -2.000000
v -28.000000 4.000000 2.000000
v -28.000000 4.000000 6.000000
v -28.000000 4.000000 10.000000
v -12.000000 4.000000 10.000000
v -12.000000 4.000000 6.000000
v -12.000000 4.000000 2.000000
v -24.000000 4.000000 14.000000
v -20.000000 4.000000 14.000000
v -16.000000 4.000000 14.000000
v -16.000000 4.000000 -2.000000
v -20.000000 4.000000 -2.000000
v -24.000000 4.000000 -2.000000
vt 0.750000 0.750000
vt 1.000000 0.750000
vt 1.000000 1.000000
vt 0.750000 1.000000
vt 0.750000 0.000000
vt 1.000000 0.000000
vt 1.000000 0.250000
vt 0.750000 0.250000
vt 1.000000 0.500000
vt 0.750000 0.500000
vt 0.000000 0.500000
vt 0.250000 0.500000
vt 0.250000 0.750000
vt 0.000000 0.750000
vt 0.500000 0.500000
vt 0.500000 0.750000
vt 0.000000 0.250000
vt 0.250000 0.250000
vt 0.500000 0.250000
vt 0.000000 0.000000
vt 0.250000 0.000000
vt 0.500000 0.000000
vt 0.250000 1.000000
vt 0.000000 1.000000
vt 0.500000 1.000000
vt 1.000000 0.500000
vt 1.000000 0.750000
vt 1.000000 1.000000
vt 0.750000 1.000000
vt 0.000000 0.500000
vt 0.000000 0.250000
vt 0.000000 0.000000
vt 0.250000 0.000000
vt 0.500000 1.000000
vt 1.000000 0.000000
vt 1.000000 0.250000
vt 0.500000 0.000000
vt 0.000000 1.000000
vt 0.000000 0.750000
vt 0.250000 1.000000
vt 0.750000 0.000000
vn 0.0000 1.0000 0.0000
vn -1.0000 0.0000 0.0000
vn 0.0000 0.0000 1.0000
vn 1.0000 0.0000 0.0000
vn 0.0000 0.0000 -1.0000
vn 0.0000 -1.0000 0.0000
usemtl None
s off
f 23/1/1 10/2/1 4/3/1 14/4/1
f 13/5/1 2/6/1 8/7/1 17/8/1
f 17/8/1 8/7/1 9/9/1 20/10/1
f 20/10/1 9/9/1 10/2/1 23/1/1
f 6/11/1 22/12/1 25/13/1 5/14/1
f 22/12/1 21/15/1 24/16/1 25/13/1
f 21/15/1 20/10/1 23/1/1 24/16/1
f 7/17/1 19/18/1 22/12/1 6/11/1
f 19/18/1 18/19/1 21/15/1 22/12/1
f 18/19/1 17/8/1 20/10/1 21/15/1
f 1/20/1 11/21/1 19/18/1 7/17/1
f 11/21/1 12/22/1 18/19/1 19/18/1
f 12/22/1 13/5/1 17/8/1 18/19/1
f 5/14/1 25/13/1 16/23/1 3/24/1
f 25/13/1 24/16/1 15/25/1 16/23/1
f 24/16/1 23/1/1 14/4/1 15/25/1
f 10/2/2 9/9/2 34/26/2 35/27/2
f 14/4/3 4/3/3 29/28/3 39/29/3
f 7/17/4 6/11/4 31/30/4 32/31/4
f 11/21/5 1/20/5 26/32/5 36/33/5
f 15/25/3 14/4/3 39/29/3 40/34/3
f 8/7/2 2/6/2 27/35/2 33/36/2
f 12/22/5 11/21/5 36/33/5 37/37/5
f 5/14/4 3/24/4 28/38/4 30/39/4
f 16/23/3 15/25/3 40/34/3 41/40/3
f 9/9/2 8/7/2 33/36/2 34/26/2
f 13/5/5 12/22/5 37/37/5 38/41/5
f 6/11/4 5/14/4 30/39/4 31/30/4
f 28/38/6 41/40/6 40/34/6 39/29/6 29/28/6 35/27/6 34/26/6 33/36/6 27/35/6 38/41/6 37/37/6 36/33/6 26/32/6 32/31/6 31/30/6 30/39/6
