# Blender v2.92.0 OBJ File: 'CUBE_bauteile.blend'
# www.blender.org
mtllib CUBE_bauteile_minispiel_5_fenster.mtl
o Plane.008
v -32.000000 0.000000 -4.000000
v -12.000000 0.000000 -4.000000
v -32.000000 0.000000 -24.000000
v -12.000000 0.000000 -24.000000
v -32.000000 0.000000 -20.000000
v -32.000000 0.000000 -16.000000
v -32.000000 0.000000 -12.000000
v -32.000000 0.000000 -8.000000
v -12.000000 0.000000 -8.000000
v -12.000000 0.000000 -12.000000
v -12.000000 0.000000 -16.000000
v -12.000000 0.000000 -20.000000
v -28.000000 0.000000 -4.000000
v -24.000000 0.000000 -4.000000
v -20.000000 0.000000 -4.000000
v -16.000000 0.000000 -4.000000
v -16.000000 0.000000 -24.000000
v -20.000000 0.000000 -24.000000
v -24.000000 0.000000 -24.000000
v -28.000000 0.000000 -24.000000
v -32.000000 4.000000 -4.000000
v -12.000000 4.000000 -4.000000
v -32.000000 4.000000 -24.000000
v -12.000000 4.000000 -24.000000
v -32.000000 4.000000 -20.000000
v -32.000000 4.000000 -16.000000
v -32.000000 4.000000 -12.000000
v -32.000000 4.000000 -8.000000
v -12.000000 4.000000 -8.000000
v -12.000000 4.000000 -12.000000
v -12.000000 4.000000 -16.000000
v -12.000000 4.000000 -20.000000
v -28.000000 4.000000 -4.000000
v -24.000000 4.000000 -4.000000
v -20.000000 4.000000 -4.000000
v -16.000000 4.000000 -4.000000
v -16.000000 4.000000 -24.000000
v -20.000000 4.000000 -24.000000
v -24.000000 4.000000 -24.000000
v -28.000000 4.000000 -24.000000
v -32.000000 0.000000 -16.000000
v -32.000000 0.000000 -12.000000
v -32.000000 4.000000 -16.000000
v -32.000000 4.000000 -12.000000
v -32.000000 0.800000 -15.200000
v -32.000000 0.800000 -12.799999
v -32.000000 3.200000 -15.200000
v -32.000000 3.200000 -12.799999
v -32.000000 0.000000 -12.000000
v -32.000000 0.000000 -8.000000
v -32.000000 4.000000 -12.000000
v -32.000000 4.000000 -8.000000
v -32.000000 0.600000 -23.400000
v -32.000000 0.600000 -20.600000
v -32.000000 3.400000 -23.400000
v -32.000000 3.400000 -20.600000
v -32.000000 0.800000 -7.199999
v -32.000000 0.800000 -4.800000
v -32.000000 3.200000 -7.199999
v -32.000000 3.200000 -4.800000
v -33.000000 0.800000 -15.200000
v -33.000000 0.800000 -12.799999
v -33.000000 3.200000 -15.200000
v -33.000000 3.200000 -12.799999
v -33.000000 0.600000 -23.400000
v -33.000000 0.600000 -20.600000
v -33.000000 3.400000 -23.400000
v -33.000000 3.400000 -20.600000
v -33.000000 0.800000 -7.199999
v -33.000000 0.800000 -4.800000
v -33.000000 3.200000 -7.199999
v -33.000000 3.200000 -4.800000
v -32.000000 0.000000 -8.000000
v -32.000000 0.000000 -8.000000
v -32.000000 0.000000 -8.000000
v -32.000000 0.000000 -4.000000
v -32.000000 0.000000 -4.000000
v -16.000000 0.000000 -4.000000
v -12.000000 0.000000 -4.000000
v -12.000000 0.000000 -4.000000
v -12.000000 0.000000 -20.000000
v -12.000000 0.000000 -24.000000
v -12.000000 0.000000 -24.000000
v -28.000000 0.000000 -24.000000
v -32.000000 0.000000 -24.000000
v -32.000000 0.000000 -24.000000
v -32.000000 0.000000 -20.000000
v -32.000000 0.000000 -16.000000
v -32.000000 0.000000 -16.000000
v -32.000000 0.000000 -16.000000
v -32.000000 0.000000 -12.000000
v -32.000000 0.000000 -12.000000
v -32.000000 0.000000 -12.000000
v -32.000000 0.000000 -12.000000
v -12.000000 0.000000 -8.000000
v -12.000000 0.000000 -12.000000
v -12.000000 0.000000 -16.000000
v -28.000000 0.000000 -4.000000
v -24.000000 0.000000 -4.000000
v -20.000000 0.000000 -4.000000
v -16.000000 0.000000 -24.000000
v -20.000000 0.000000 -24.000000
v -24.000000 0.000000 -24.000000
v -32.000000 4.000000 -8.000000
v -32.000000 4.000000 -8.000000
v -32.000000 4.000000 -8.000000
v -32.000000 4.000000 -4.000000
v -32.000000 4.000000 -4.000000
v -16.000000 4.000000 -4.000000
v -12.000000 4.000000 -4.000000
v -12.000000 4.000000 -4.000000
v -12.000000 4.000000 -20.000000
v -12.000000 4.000000 -24.000000
v -12.000000 4.000000 -24.000000
v -28.000000 4.000000 -24.000000
v -32.000000 4.000000 -24.000000
v -32.000000 4.000000 -24.000000
v -32.000000 4.000000 -20.000000
v -32.000000 4.000000 -16.000000
v -32.000000 4.000000 -16.000000
v -32.000000 4.000000 -16.000000
v -32.000000 4.000000 -12.000000
v -32.000000 4.000000 -12.000000
v -32.000000 4.000000 -12.000000
v -32.000000 4.000000 -12.000000
v -12.000000 4.000000 -8.000000
v -12.000000 4.000000 -12.000000
v -12.000000 4.000000 -16.000000
v -28.000000 4.000000 -4.000000
v -24.000000 4.000000 -4.000000
v -20.000000 4.000000 -4.000000
v -16.000000 4.000000 -24.000000
v -20.000000 4.000000 -24.000000
v -24.000000 4.000000 -24.000000
v -32.000000 0.000000 -16.000000
v -32.000000 0.000000 -16.000000
v -32.000000 0.000000 -12.000000
v -32.000000 0.000000 -12.000000
v -32.000000 4.000000 -16.000000
v -32.000000 4.000000 -16.000000
v -32.000000 4.000000 -12.000000
v -32.000000 4.000000 -12.000000
v -32.000000 0.800000 -15.200000
v -32.000000 0.800000 -15.200000
v -32.000000 0.800000 -12.799999
v -32.000000 0.800000 -12.799999
v -32.000000 3.200000 -15.200000
v -32.000000 3.200000 -15.200000
v -32.000000 3.200000 -12.799999
v -32.000000 3.200000 -12.799999
v -32.000000 0.000000 -12.000000
v -32.000000 0.000000 -12.000000
v -32.000000 0.000000 -8.000000
v -32.000000 0.000000 -8.000000
v -32.000000 4.000000 -12.000000
v -32.000000 4.000000 -12.000000
v -32.000000 4.000000 -8.000000
v -32.000000 4.000000 -8.000000
v -32.000000 0.600000 -23.400000
v -32.000000 0.600000 -23.400000
v -32.000000 0.600000 -20.600000
v -32.000000 0.600000 -20.600000
v -32.000000 3.400000 -23.400000
v -32.000000 3.400000 -23.400000
v -32.000000 3.400000 -20.600000
v -32.000000 3.400000 -20.600000
v -32.000000 0.800000 -7.199999
v -32.000000 0.800000 -7.199999
v -32.000000 0.800000 -4.800000
v -32.000000 0.800000 -4.800000
v -32.000000 3.200000 -7.199999
v -32.000000 3.200000 -7.199999
v -32.000000 3.200000 -4.800000
v -32.000000 3.200000 -4.800000
v -33.000000 0.800000 -12.799999
v -33.000000 3.200000 -12.799999
v -33.000000 3.200000 -7.199999
v -33.000000 0.800000 -7.199999
v -33.000000 0.800000 -15.200000
v -33.000000 3.400000 -20.600000
v -33.000000 3.400000 -23.400000
v -33.000000 0.800000 -4.800000
v -33.000000 3.200000 -15.200000
v -33.000000 0.600000 -23.400000
v -33.000000 3.200000 -4.800000
v -33.000000 0.600000 -20.600000
vt 1.412500 -1.026250
vt 2.222500 -1.026250
vt 2.222500 -0.216250
vt 1.412500 -0.216250
vt -1.017500 -0.216250
vt -0.207500 -0.216250
vt -0.207500 0.593750
vt -1.017500 0.593750
vt -1.827500 0.593750
vt -1.017500 0.593750
vt -1.017500 1.403750
vt -1.827500 1.403750
vt 1.412500 0.593750
vt 2.222500 0.593750
vt 2.222500 1.403750
vt 1.412500 1.403750
vt 0.602500 -1.026250
vt 0.602500 -0.216250
vt -1.827500 -1.026250
vt -1.017500 -1.026250
vt -1.017500 -0.216250
vt -1.827500 -0.216250
vt 0.602500 0.593750
vt 0.602500 1.403750
vt -0.207500 -1.026250
vt -0.207500 -0.216250
vt -0.207500 0.593750
vt -0.207500 1.403750
vt 3.032501 0.593750
vt 3.842500 0.593750
vt 3.721000 0.715250
vt 3.154000 0.715250
vt 2.222500 0.593750
vt 3.032501 1.403750
vt 2.222501 1.403750
vt 0.602500 -0.216250
vt 1.412500 -0.216250
vt 1.412500 0.593750
vt 0.602500 0.593750
vt 3.437500 0.188749
vt 2.627501 0.188749
vt 2.789500 0.026750
vt 3.275500 0.026749
vt 3.437500 0.188750
vt 3.437500 0.998750
vt 3.275501 0.836750
vt 3.275500 0.350750
vt 2.222500 0.593750
vt 2.222500 0.593750
vt 2.222500 0.593750
vt 2.222500 0.593750
vt 2.627500 0.188750
vt 2.789500 0.350750
vt 2.627500 0.998750
vt 2.789500 0.836750
vt 4.652500 0.593750
vt 4.652500 1.403750
vt 3.842500 1.403750
vt 3.842500 0.593750
vt 2.222500 0.593750
vt 2.222500 0.593750
vt 2.222500 0.593750
vt 2.222500 0.593750
vt 0.379751 2.801000
vt 0.379751 2.315000
vt 0.582251 2.315000
vt 0.582251 2.801000
vt 3.842500 1.403750
vt 3.154000 1.282250
vt 3.721000 1.282250
vt 0.582251 0.857000
vt 0.582251 1.343000
vt 0.379751 1.343000
vt 0.379751 0.857000
vt 2.627501 -0.621251
vt 3.437500 -0.621251
vt 3.275500 -0.459251
vt 2.789500 -0.459251
vt 0.784751 -1.249000
vt 0.784751 -1.816000
vt 0.987251 -1.816000
vt 0.987251 -1.249000
vt 1.594750 -3.436001
vt 1.594750 -2.869001
vt 1.392251 -2.869001
vt 1.392251 -3.436001
vt 0.379751 2.315000
vt 0.379751 1.829000
vt 0.582251 1.829000
vt 0.582251 2.315000
vt 0.582251 1.343000
vt 0.582251 1.829000
vt 0.379751 1.829000
vt 0.379751 1.343000
vt 0.500000 0.500000
vt -0.300000 0.500000
vt -0.300000 -0.300000
vt 0.500000 -0.300000
vt 1.300000 0.500000
vt 0.500000 0.500000
vt 0.500000 -0.300000
vt 1.300000 -0.300000
vt 1.300000 1.300000
vt 0.500000 1.300000
vt 0.500000 0.500000
vt 1.300000 0.500000
vt -1.311040 1.585163
vt -1.311040 0.860748
vt -1.311040 0.136333
vt -1.311040 -0.588085
vt -1.311040 -1.312500
vt -0.586624 -1.312500
vt 0.137792 -1.312500
vt 0.862208 -1.312500
vt 1.586624 -1.312500
vt 2.311040 -1.312500
vt 2.311039 -0.588085
vt 2.311039 0.136333
vt 2.311039 0.860748
vt 2.311039 1.585163
vt 2.311039 2.309581
vt 1.586624 2.309579
vt 0.862208 2.309579
vt 0.137792 2.309579
vt -0.586624 2.309579
vt -1.311040 2.309579
vt 2.222500 0.593750
vt 2.222500 0.593750
vt 2.222500 0.593750
vt 2.222500 0.593750
vt 2.222500 0.593750
vt 2.222500 0.593750
vt 2.222500 0.593750
vt 2.222500 0.593750
vt 3.377560 -0.621250
vt 3.944560 -0.621250
vt 3.944560 -0.418750
vt 3.377560 -0.418750
vt 3.377560 -1.026251
vt 3.863560 -1.026251
vt 3.863560 -0.823751
vt 3.377560 -0.823751
vt 2.222500 -1.026250
vt 2.708500 -1.026250
vt 2.708500 -0.823750
vt 2.222500 -0.823750
vt 2.222500 0.593750
vt 2.222500 0.593750
vt 2.222500 0.593750
vt 2.222500 0.593750
vt -1.311040 -4.210165
vt -1.311040 -4.934581
vt -0.586624 -4.934581
vt 0.137792 -4.934581
vt 0.862208 -4.934581
vt 1.586624 -4.934581
vt 2.311040 -4.934581
vt 2.311039 -4.210165
vt 2.311039 -3.485749
vt 2.311039 -2.761333
vt 2.311039 -2.036917
vt 2.311039 -1.312500
vt 1.586624 -1.312500
vt 0.862208 -1.312500
vt 0.137792 -1.312500
vt -0.586624 -1.312500
vt -1.311040 -1.312500
vt -1.311040 -2.036917
vt -1.311040 -2.761333
vt -1.311040 -3.485749
vt 2.222500 0.593750
vt 2.222500 0.593750
vt 2.222500 0.593750
vt 2.222500 0.593750
vt 4.430560 -0.823751
vt 3.944560 -0.823751
vt 3.944560 -1.026251
vt 4.430560 -1.026251
vt 2.222500 0.593750
vt 2.222500 0.593750
vt 2.222500 0.593750
vt 2.222500 0.593750
vt 2.222500 0.593750
vt 2.222500 0.593750
vt 2.222500 0.593750
vt 2.222500 0.593750
vt 3.296560 -0.823751
vt 2.810560 -0.823751
vt 2.810560 -1.026251
vt 3.296560 -1.026251
vt 3.377560 -0.418751
vt 2.810561 -0.418751
vt 2.810561 -0.621251
vt 3.377560 -0.621251
vn -1.0000 0.0000 0.0000
vn 0.0000 0.0000 1.0000
vn 0.0000 0.0000 -1.0000
vn 1.0000 0.0000 0.0000
vn 0.0000 -1.0000 0.0000
vn 0.0000 1.0000 0.0000
g Plane.008_Plane.008_Wand
usemtl Wand
s off
f 95/1/1 80/2/1 111/3/1 126/4/1
f 20/5/2 19/6/2 39/7/2 40/8/2
f 79/9/3 78/10/3 109/11/3 110/12/3
f 98/13/3 77/14/3 108/15/3 129/16/3
f 96/17/1 95/1/1 126/4/1 127/18/1
f 82/19/1 81/20/1 112/21/1 113/22/1
f 99/23/3 98/13/3 129/16/3 130/24/3
f 97/25/1 96/17/1 127/18/1 128/26/1
f 100/27/3 99/23/3 130/24/3 131/28/3
f 81/20/1 97/25/1 128/26/1 112/21/1
f 87/29/4 86/30/4 159/31/4 161/32/4
f 78/10/3 100/27/3 131/28/3 109/11/3
f 88/33/4 87/29/4 25/34/4 119/35/4
f 102/36/2 17/37/2 37/38/2 133/39/2
f 76/40/4 73/41/4 167/42/4 169/43/4
f 44/44/4 42/45/4 146/46/4 149/47/4
f 90/48/2 121/49/2 140/50/2 136/51/2
f 43/52/4 44/44/4 149/47/4 147/53/4
f 41/54/4 43/52/4 147/53/4 144/55/4
f 42/45/4 41/54/4 144/55/4 146/46/4
f 151/56/4 155/57/4 157/58/4 153/59/4
f 105/60/2 75/61/2 50/62/2 52/63/2
f 168/64/2 172/65/2 71/66/2 69/67/2
f 117/68/4 25/34/4 165/69/4 163/70/4
f 25/34/4 87/29/4 161/32/4 165/69/4
f 86/30/4 117/68/4 163/70/4 159/31/4
f 150/71/3 46/72/3 62/73/3 64/74/3
f 28/75/4 21/76/4 173/77/4 171/78/4
f 73/41/4 28/75/4 171/78/4 167/42/4
f 21/76/4 76/40/4 169/43/4 173/77/4
f 160/79/2 55/80/2 67/81/2 65/82/2
f 56/83/3 162/84/3 66/85/3 68/86/3
f 45/87/2 47/88/2 63/89/2 61/90/2
f 60/91/3 58/92/3 70/93/3 72/94/3
f 17/95/2 4/96/2 24/97/2 37/98/2
f 19/99/2 102/100/2 133/101/2 39/102/2
f 3/103/2 20/104/2 40/105/2 23/106/2
g Plane.008_Plane.008_DEkce
usemtl DEkce
f 104/107/5 122/108/5 120/109/5 118/110/5 116/111/5 115/112/5 134/113/5 38/114/5 132/115/5 114/116/5 32/117/5 31/118/5 30/119/5 29/120/5 22/121/5 36/122/5 35/123/5 34/124/5 33/125/5 107/126/5
f 124/127/2 106/128/2 158/129/2 156/130/2
f 26/131/2 27/132/2 141/133/2 139/134/2
f 164/135/5 166/136/5 180/137/5 181/138/5
f 148/139/5 48/140/5 176/141/5 183/142/5
f 59/143/5 174/144/5 185/145/5 177/146/5
g Plane.008_Plane.008_Boden
usemtl Boden
f 123/147/2 92/148/2 138/149/2 142/150/2
f 12/151/6 83/152/6 101/153/6 18/154/6 103/155/6 84/156/6 85/157/6 5/158/6 89/159/6 91/160/6 74/161/6 1/162/6 13/163/6 14/164/6 15/165/6 16/166/6 2/167/6 9/168/6 10/169/6 11/170/6
f 94/171/2 6/172/2 135/173/2 137/174/2
f 145/175/6 143/176/6 179/177/6 175/178/6
f 8/179/2 93/180/2 152/181/2 154/182/2
f 7/183/2 125/184/2 51/185/2 49/186/2
f 170/187/6 57/188/6 178/189/6 182/190/6
f 54/191/6 53/192/6 184/193/6 186/194/6
