# Blender v2.92.0 OBJ File: 'CUBE_bauteile.blend'
# www.blender.org
mtllib CUBE_bauteile_minispiel_5.mtl
o Plane.008
v -32.000000 0.000000 -4.000000
v -12.000000 0.000000 -4.000000
v -32.000000 0.000000 -24.000000
v -12.000000 0.000000 -24.000000
v -32.000000 0.000000 -20.000000
v -32.000000 0.000000 -16.000000
v -32.000000 0.000000 -12.000000
v -32.000000 0.000000 -8.000000
v -12.000000 0.000000 -8.000000
v -12.000000 0.000000 -12.000000
v -12.000000 0.000000 -16.000000
v -12.000000 0.000000 -20.000000
v -28.000000 0.000000 -4.000000
v -24.000000 0.000000 -4.000000
v -20.000000 0.000000 -4.000000
v -16.000000 0.000000 -4.000000
v -16.000000 0.000000 -24.000000
v -20.000000 0.000000 -24.000000
v -24.000000 0.000000 -24.000000
v -28.000000 0.000000 -24.000000
v -32.000000 4.000000 -4.000000
v -12.000000 4.000000 -4.000000
v -32.000000 4.000000 -24.000000
v -12.000000 4.000000 -24.000000
v -32.000000 4.000000 -20.000000
v -32.000000 4.000000 -16.000000
v -32.000000 4.000000 -12.000000
v -32.000000 4.000000 -8.000000
v -12.000000 4.000000 -8.000000
v -12.000000 4.000000 -12.000000
v -12.000000 4.000000 -16.000000
v -12.000000 4.000000 -20.000000
v -28.000000 4.000000 -4.000000
v -24.000000 4.000000 -4.000000
v -20.000000 4.000000 -4.000000
v -16.000000 4.000000 -4.000000
v -16.000000 4.000000 -24.000000
v -20.000000 4.000000 -24.000000
v -24.000000 4.000000 -24.000000
v -28.000000 4.000000 -24.000000
vt -0.000629 -1.014462
vt 1.003670 -1.014462
vt 1.003670 -0.010162
vt -0.000629 -0.010162
vt -3.013529 -0.010161
vt -2.009230 -0.010161
vt -2.009230 0.994138
vt -3.013530 0.994138
vt -4.017829 0.994139
vt -3.013530 0.994139
vt -3.013530 1.998439
vt -4.017829 1.998439
vt -0.000629 0.994139
vt 1.003670 0.994139
vt 1.003670 1.998439
vt -0.000629 1.998439
vt -1.004930 -1.014462
vt -1.004930 -0.010162
vt -4.017829 -1.014462
vt -3.013530 -1.014462
vt -3.013530 -0.010162
vt -4.017829 -0.010162
vt -1.004930 0.994139
vt -1.004930 1.998439
vt -2.009230 -1.014462
vt -2.009230 -0.010162
vt -4.017829 -0.010161
vt -4.017829 0.994139
vt -2.009230 0.994139
vt -2.009230 1.998439
vt 3.012272 0.994139
vt 4.016572 0.994139
vt 4.016572 1.998439
vt 3.012272 1.998439
vt 2.007971 0.994139
vt 2.007971 1.998439
vt -0.000629 -0.010161
vt 1.003670 -0.010162
vt 1.003670 0.994138
vt -0.000629 0.994138
vt 1.003671 0.994139
vt 1.003671 1.998439
vt -1.004930 -0.010161
vt -1.004930 0.994138
vt 2.007970 0.994138
vt 1.003671 0.994138
vt 1.003671 -0.010162
vt 2.007970 -0.010162
vt -1.440000 1.663999
vt -1.440000 0.888000
vt -1.440000 0.112000
vt -1.440000 -0.663999
vt -1.440000 -1.440000
vt -0.664000 -1.440000
vt 0.112000 -1.440000
vt 0.888000 -1.440000
vt 1.664000 -1.440000
vt 2.440000 -1.440000
vt 2.439999 -0.663999
vt 2.439999 0.112000
vt 2.439999 0.888000
vt 2.439999 1.663999
vt 2.439999 2.440001
vt 1.664000 2.439998
vt 0.887999 2.439998
vt 0.111999 2.439998
vt -0.664000 2.439998
vt -1.440000 2.439998
vt -1.440000 -0.663999
vt -1.440000 -1.440000
vt -0.664000 -1.440000
vt 0.112000 -1.440000
vt 0.888000 -1.440000
vt 1.664000 -1.440000
vt 2.440000 -1.440000
vt 2.439999 -0.663999
vt 2.439999 0.112000
vt 2.439999 0.888000
vt 2.439999 1.663999
vt 2.439999 2.440001
vt 1.664000 2.440001
vt 0.887999 2.440001
vt 0.111999 2.440001
vt -0.664000 2.440001
vt -1.440000 2.440001
vt -1.440000 1.663999
vt -1.440000 0.888000
vt -1.440000 0.112000
vn -1.0000 0.0000 0.0000
vn 0.0000 0.0000 1.0000
vn 0.0000 0.0000 -1.0000
vn 1.0000 0.0000 0.0000
vn 0.0000 -1.0000 0.0000
vn 0.0000 1.0000 0.0000
g Plane.008_Plane.008_Wand
usemtl Wand
s off
f 9/1/1 2/2/1 22/3/1 29/4/1
f 20/5/2 19/6/2 39/7/2 40/8/2
f 2/9/3 16/10/3 36/11/3 22/12/3
f 13/13/3 1/14/3 21/15/3 33/16/3
f 10/17/1 9/1/1 29/4/1 30/18/1
f 4/19/1 12/20/1 32/21/1 24/22/1
f 14/23/3 13/13/3 33/16/3 34/24/3
f 11/25/1 10/17/1 30/18/1 31/26/1
f 3/27/2 20/5/2 40/8/2 23/28/2
f 15/29/3 14/23/3 34/24/3 35/30/3
f 12/20/1 11/25/1 31/26/1 32/21/1
f 5/31/4 3/32/4 23/33/4 25/34/4
f 16/10/3 15/29/3 35/30/3 36/11/3
f 6/35/4 5/31/4 25/34/4 26/36/4
f 17/37/2 4/38/2 24/39/2 37/40/2
f 7/41/4 6/35/4 26/36/4 27/42/4
f 18/43/2 17/37/2 37/40/2 38/44/2
f 19/6/2 18/43/2 38/44/2 39/7/2
f 1/45/4 8/46/4 28/47/4 21/48/4
g Plane.008_Plane.008_DEkce
usemtl DEkce
f 28/49/5 27/50/5 26/51/5 25/52/5 23/53/5 40/54/5 39/55/5 38/56/5 37/57/5 24/58/5 32/59/5 31/60/5 30/61/5 29/62/5 22/63/5 36/64/5 35/65/5 34/66/5 33/67/5 21/68/5
g Plane.008_Plane.008_Boden
usemtl Boden
f 12/69/6 4/70/6 17/71/6 18/72/6 19/73/6 20/74/6 3/75/6 5/76/6 6/77/6 7/78/6 8/79/6 1/80/6 13/81/6 14/82/6 15/83/6 16/84/6 2/85/6 9/86/6 10/87/6 11/88/6
